# xmcd
#
# Track frame offsets: 
#        150
#        18631
#        34979
#        52980
#        64891
#        85455
#        102649
#        117500
#        133715
#        143304
#        156795
#        177204
#        188461
#        206106
#        222122
#        241098
#        269273
#
# Disc length: 3863 seconds
#
# Revision: 0
# Processed by: cddbd v1.5.2PL0 Copyright (c) Steve Scherf et al.
# Submitted via: ExactAudioCopy v0.99pb5
#
DISCID=f30f1511
DTITLE=Hindu Cowboys - Live After Five
DYEAR=2004
DGENRE=Rockabilly
TTITLE0=Law Man
TTITLE1=Good Hearted Woman
TTITLE2=She'll Get Hers
TTITLE3=Alabami Bound
TTITLE4=Riverman Blues
TTITLE5=Hippy High Horse
TTITLE6=Solitary Man
TTITLE7=Mystery Train
TTITLE8=It Hurts Me More (The Second Time Around)
TTITLE9=Remind Me to Remember
TTITLE10=Love Shaped Hole
TTITLE11=Tennessee
TTITLE12=Hey Hey What Can I Do
TTITLE13=Land of Opportunity
TTITLE14=Playboy T.V.
TTITLE15=Understand Your Man/Octopus's Garden
TTITLE16=Bonus Track
EXTD=
EXTT0=
EXTT1=
EXTT2=
EXTT3=
EXTT4=
EXTT5=
EXTT6=
EXTT7=
EXTT8=
EXTT9=
EXTT10=
EXTT11=
EXTT12=
EXTT13=
EXTT14=
EXTT15=
EXTT16=
PLAYORDER=
